<svg width="679" height="221" viewBox="0 0 679 221" fill="none" xmlns="http://www.w3.org/2000/svg">
<path d="M9.44246 55.4231C5.11321 55.4231 3.53038 39.1198 3.35736 36.0054C3.24959 34.0655 2.26799 27.8499 4.10945 26.4334C8.38058 23.1479 15.7382 22.9732 20.7922 22.4678C26.2156 21.9254 32.9504 21.2484 37.7484 24.3138C47.3546 30.4511 49.975 45.6161 51.1493 56.0384C54.6883 87.4464 53.0065 120.364 52.4484 151.896C52.3616 156.798 52.4243 218.768 45.8163 217.875C37.8708 216.801 32.0464 199.284 29.2019 193.261C23.4584 181.098 21.7494 170.422 21.7494 157.092C21.7494 132.279 35.0469 112.752 54.2944 97.5402C62.3923 91.1403 72.3467 86.277 82.0534 82.7718C85.7141 81.4499 89.9758 82.1395 93.1297 80.0369" stroke="#2D4538" stroke-width="6" stroke-linecap="round"/>
<path d="M107.134 106.614C99.7596 105.838 92.0153 103.36 84.5713 104.7C74.6566 106.484 78.0233 118.149 81.016 124.391C85.123 132.957 92.7359 139.006 102.622 135.33C109.562 132.75 108.685 121.805 108.228 115.981C107.851 111.168 106.309 109.548 103.579 106.135C101.338 103.334 105.865 113.202 108.365 115.776C112.07 119.59 126.763 132.379 132.705 124.527C137.137 118.672 138.362 92.9248 147.679 107.366C151.053 112.597 152.412 118.753 156.088 123.844C158.586 127.302 157.956 121.88 159.028 119.4C162.159 112.16 173.148 100.695 180.702 109.622C188.154 118.429 191.48 127.536 204.359 127.536" stroke="#2D4538" stroke-width="6" stroke-linecap="round"/>
<path d="M277.047 4.33026C276.629 3.59874 275.953 1.8967 275.953 4.05677C275.953 12.8979 277.816 21.9451 279.03 30.6534C282.829 57.9117 285.662 85.0359 285.662 112.563C285.662 124.108 286.781 136.356 284.705 147.775C283.807 152.712 284.431 146.265 284.431 144.629" stroke="#2D4538" stroke-width="6" stroke-linecap="round"/>
<path d="M336.188 4.70605C330.268 45.5574 309.807 78.9449 280.67 107.537C278.52 109.647 271.189 118.073 266.996 116.426C260.945 114.049 259.328 104.002 259.953 98.3756C261.103 88.0276 289.074 107.926 291.746 109.93C304.526 119.515 308.298 141.095 323.881 147.193C337.105 152.368 349.302 150.07 358.067 138.578C363.148 131.916 368.451 120.282 376.733 117.383C379.67 116.355 397.482 116.699 386.578 116.699C378.19 116.699 373.109 119.84 373.109 129.006C373.109 136.629 377.556 141.313 385.416 141.313C392.752 141.313 392.8 128.303 392.8 123.468C392.8 119.708 405.733 131.102 409.893 131.399C414.012 131.693 416.439 129.572 418.029 125.861C420.444 120.227 420.785 117.794 424.114 124.083C426.335 128.278 430.166 135.378 433.686 138.578C435.827 140.524 438.189 126.57 438.336 125.861C438.856 123.344 439.675 116.183 442.301 114.511C443.985 113.44 453.065 127.6 454.403 128.938C459.816 134.351 462.742 137.865 467.531 131.126C470.417 127.063 475.142 117.276 481.615 119.434C489.986 122.224 495.865 130.633 503.426 134.886C509.722 138.428 510.338 134.489 510.947 129.006" stroke="#2D4538" stroke-width="6" stroke-linecap="round"/>
<path d="M540.483 119.16C540.483 126.274 541.876 132.08 542.945 138.851C543.654 143.342 553.758 132.373 554.568 131.535C557.552 128.448 563.506 120.679 568.242 124.288C574.875 129.341 578.623 136.011 588.207 133.655C592.691 132.552 599.115 117.156 595.591 113.28C594.742 112.346 590.637 113.013 589.711 113.211C585.052 114.21 584.203 119.384 584.994 123.467C587.57 136.779 610.281 135.482 620.068 135.09C626.226 134.844 627.354 132.23 630.324 127.775" stroke="#2D4538" stroke-width="6" stroke-linecap="round"/>
<path d="M625.401 76.0859C625.401 58.3233 626.042 112.542 633.196 128.801C634.103 130.863 642.774 117.168 643.793 115.605C645.314 113.273 649.855 100.751 648.579 109.041C647.461 116.31 643.407 121.877 637.982 126.544C633.782 130.158 635.518 131.887 640.717 132.424C649.722 133.356 660.161 133.581 669.159 132.424C671.859 132.077 673.269 130.236 675.86 130.236" stroke="#2D4538" stroke-width="6" stroke-linecap="round"/>
<path d="M515.869 101.931C516.235 92.0499 523.244 83.0763 528.176 74.8555" stroke="#2D4538" stroke-width="6" stroke-linecap="round"/>
</svg>
