<svg width="682" height="226" viewBox="0 0 682 226" fill="none" xmlns="http://www.w3.org/2000/svg">
<path d="M8.44251 60.4231C4.11326 60.4231 2.99984 48.5001 3.49933 42.5001C3.99933 36.5001 6.49251 33.5001 8.44251 32.0001C11.9345 29.3139 14.7382 27.9733 19.7923 27.4679C25.2157 26.9255 31.2515 27.6863 37 30C46.5 35 48.975 50.6161 50.1494 61.0385C53.6883 92.4465 52.0065 125.364 51.4485 156.896C51.3617 161.798 51.4243 223.768 44.8164 222.875C36.8709 221.801 31.0465 204.285 28.202 198.261C22.4585 186.098 20.7495 175.422 20.7495 162.092C20.7495 137.279 34.0469 117.752 53.2945 102.54C61.3923 96.1403 71.3468 91.2771 81.0535 87.7719C84.7141 86.45 88.4996 86.0001 92.1297 85.037" stroke="#2D4538" stroke-width="6" stroke-linecap="round"/>
<path d="M101.704 111.077C96 110 91.0153 108.36 83.5713 109.7C73.6566 111.484 77.0233 123.149 80.016 129.391C84.123 137.957 91.7359 144.006 101.622 140.33C108.562 137.75 107.685 126.805 107.228 120.981C106 115.5 105.5 112.5 101 111C101 110.5 108.5 114 111.5 119C115.205 122.814 123.795 144.473 131 132.5C135.431 126.644 137.362 97.9249 146.679 112.366C150.053 117.597 151.412 123.753 155.088 128.844C157.586 132.302 156.956 126.88 158.028 124.4C161.159 117.16 172.148 105.695 179.702 114.622C187.154 123.429 190.48 132.536 203.359 132.536" stroke="#2D4538" stroke-width="6" stroke-linecap="round"/>
<path d="M275 3.5C275 5 274.953 6.89693 274.953 9.057C274.953 17.8981 276.816 26.9454 278.03 35.6537C281.829 62.9119 284.662 90.0361 284.662 117.563C284.662 129.108 285.781 141.356 283.705 152.775C282.807 157.712 284.19 151.313 284.19 149.677" stroke="#2D4538" stroke-width="6" stroke-linecap="round"/>
<path d="M335.188 9.70605C329.268 50.5574 308.807 83.9449 279.67 112.537C277.52 114.647 270.189 123.073 265.996 121.426C259.945 119.049 258.328 109.002 258.953 103.376C260.103 93.0276 288.074 112.926 290.746 114.93C303.526 124.515 307.298 146.095 322.881 152.193C336.105 157.368 348.302 155.07 357.067 143.578C362.148 136.916 367.451 125.282 375.733 122.383C378.67 121.355 399 122.5 386 122C377.612 122 372.109 124.84 372.109 134.006C372.109 141.629 376.556 146.313 384.416 146.313C391.752 146.313 390 128.335 390 123.5C389.5 119 401 128.905 405 127C415.5 122 412 149 417.029 130.861C419.444 125.227 419.785 122.794 423.114 129.083C425.335 133.278 429.166 140.378 432.686 143.578C434.827 145.524 437.189 131.57 437.336 130.861C437.856 128.344 438.675 121.183 441.301 119.511C442.985 118.44 452.065 132.6 453.403 133.938C458.816 139.351 461.742 142.865 466.531 136.126C469.417 132.063 474.142 122.276 480.615 124.434C488.986 127.224 494.865 135.633 502.426 139.886C508.722 143.428 509.338 139.489 509.947 134.006" stroke="#2D4538" stroke-width="6" stroke-linecap="round"/>
<path d="M539.483 124.16C539.483 131.274 540.876 137.08 541.945 143.851C542.654 148.342 552.758 137.373 553.568 136.535C556.552 133.448 562.506 125.679 567.242 129.288C573.875 134.341 577.623 141.011 587.207 138.655C591.691 137.552 598.024 123.376 594.5 119.5C592.5 117.3 589.637 118.013 588.711 118.211C584.052 119.21 583.203 124.384 583.994 128.467C586.57 141.779 609.281 140.482 619.068 140.09C625.226 139.844 626.53 134.955 629.5 130.5" stroke="#2D4538" stroke-width="6" stroke-linecap="round"/>
<path d="M624.5 77.5C624.5 82.9141 625.846 117.741 633 134C633.908 136.062 641.774 122.168 642.793 120.605C644.314 118.273 646.775 103.21 645.5 111.5C644.382 118.769 642.407 126.877 636.982 131.544C632.782 135.158 634.518 136.887 639.717 137.424C648.722 138.356 659.161 138.581 668.159 137.424C670.859 137.077 671.8 136.763 678.5 134" stroke="#2D4538" stroke-width="6" stroke-linecap="round"/>
<path d="M514.869 106.931C515.235 97.0499 522.244 88.0763 527.176 79.8555" stroke="#2D4538" stroke-width="6" stroke-linecap="round"/>
</svg>
