<svg xmlns="http://www.w3.org/2000/svg" width="1066.667" height="1066.667" preserveAspectRatio="xMidYMid meet" version="1.0" viewBox="0 0 800 800"><metadata>Created by potrace 1.14, written by Peter Selinger 2001-2017</metadata><g fill="#000" stroke="none"><path d="M998 7480 c-207 -35 -403 -159 -490 -310 -53 -92 -70 -171 -76 -349 -11 -386 81 -631 237 -631 94 0 115 111 27 140 -61 20 -98 132 -116 347 -14 178 4 314 54 412 44 84 178 186 293 221 194 60 538 33 720 -56 122 -59 247 -248 312 -472 97 -330 154 -899 176 -1757 l6 -230 -60 -48 c-101 -81 -299 -276 -403 -397 -361 -420 -558 -846 -630 -1360 -18 -134 -15 -547 6 -719 36 -299 104 -543 231 -831 40 -91 92 -210 115 -265 184 -433 363 -656 539 -673 139 -12 204 163 255 688 35 356 51 780 66 1685 6 341 15 800 20 1020 5 220 10 497 10 616 l0 216 78 55 c222 159 466 289 769 409 120 48 202 71 415 119 73 16 102 27 113 43 35 49 4 117 -54 117 -35 0 -318 -62 -386 -85 -206 -69 -563 -233 -687 -315 -35 -24 -72 -46 -83 -50 -11 -4 -51 -29 -89 -55 -37 -25 -70 -45 -72 -42 -2 2 -8 140 -14 308 -21 614 -68 1122 -131 1419 -33 151 -87 306 -147 425 -47 91 -71 125 -142 196 -49 50 -106 97 -135 112 -71 35 -194 72 -304 91 -100 17 -337 20 -423 6z m1138 -3212 c-3 -178 -11 -537 -16 -798 -6 -261 -15 -718 -20 -1015 -19 -1006 -66 -1582 -144 -1769 l-15 -37 -31 16 c-54 28 -109 85 -171 179 -75 111 -123 207 -229 451 -45 104 -90 207 -100 230 -61 135 -118 302 -155 460 -72 305 -92 732 -49 1035 60 417 242 813 540 1177 91 111 368 393 387 393 6 0 8 -105 3 -322z" transform="translate(0.000000,800.000000) scale(0.100000,-0.100000)"/><path d="M5280 4638 c-96 -49 -149 -157 -254 -521 -36 -125 -78 -253 -92 -284 -37 -77 -98 -143 -134 -143 -72 0 -176 122 -340 395 -99 164 -192 278 -287 349 -128 96 -189 122 -360 156 -256 51 -483 48 -615 -9 -69 -29 -131 -91 -164 -164 -27 -58 -29 -70 -28 -177 1 -129 20 -213 79 -358 103 -252 279 -438 476 -503 102 -33 253 -34 355 -2 228 72 313 247 301 618 -3 88 -8 169 -12 180 -16 43 57 -56 136 -185 201 -330 310 -438 450 -448 151 -11 259 122 349 433 110 377 158 503 201 526 42 22 128 -105 232 -341 110 -250 172 -355 230 -391 38 -23 59 -24 96 -5 34 18 49 51 66 148 8 42 22 92 31 110 101 197 314 378 445 378 99 0 136 -32 312 -265 257 -341 413 -449 679 -470 76 -7 85 -5 111 15 20 16 27 30 27 56 0 53 -24 70 -116 78 -233 19 -345 99 -579 410 -157 209 -192 246 -267 287 -60 32 -68 34 -163 34 -87 0 -107 -4 -157 -27 -162 -75 -330 -243 -418 -416 -18 -35 -35 -76 -39 -90 -7 -26 -9 -25 -36 28 -15 30 -58 123 -94 205 -109 245 -206 375 -299 403 -55 17 -71 15 -122 -10z m-1519 -192 c147 -29 175 -39 212 -74 76 -73 121 -401 83 -614 -16 -85 -56 -170 -95 -198 -68 -47 -219 -72 -312 -50 -174 40 -326 194 -423 426 -54 130 -70 200 -71 305 0 88 2 99 28 138 33 50 83 76 177 90 95 14 259 5 401 -23z" transform="translate(0.000000,800.000000) scale(0.100000,-0.100000)"/></g></svg>